<?xml version="1.0" encoding="utf-8"?>
<!-- Generator: Adobe Illustrator 16.0.4, SVG Export Plug-In . SVG Version: 6.00 Build 0)  -->
<!DOCTYPE svg PUBLIC "-//W3C//DTD SVG 1.1//EN" "http://www.w3.org/Graphics/SVG/1.1/DTD/svg11.dtd">
<svg version="1.1" id="Layer_1" xmlns="http://www.w3.org/2000/svg" xmlns:xlink="http://www.w3.org/1999/xlink" x="0px" y="0px"
	 width="1024px" height="250px" viewBox="0 0 1024 250" enable-background="new 0 0 1024 250" xml:space="preserve">
<g>
	<path d="M74.371,79.34c0,0-22.384-2.737-31.725-2.737c-15.782,0-24.156,5.636-24.156,18.197c0,14.494,7.73,16.909,27.215,21.257
		c22.223,4.993,32.047,10.467,32.047,29.953c0,24.641-13.527,34.303-35.589,34.303c-13.205,0-35.267-3.542-35.267-3.542
		l1.288-10.308c0,0,21.901,2.899,33.334,2.899c15.783,0,23.834-6.927,23.834-22.385c0-12.562-6.602-16.106-24.8-19.647
		C17.524,122.338,5.93,116.862,5.93,95.605c0-21.579,14.171-29.952,35.911-29.952c13.205,0,33.657,3.22,33.657,3.22L74.371,79.34z"
		/>
	<path d="M149.089,99.148l-0.484,9.823c0,0-12.883-1.449-19.002-1.449c-18.52,0-23.512,8.052-23.512,29.633
		c0,23.831,3.704,32.527,23.673,32.527c6.12,0,19.002-1.449,19.002-1.449l0.483,9.985c0,0-14.976,2.255-22.384,2.255
		c-25.604,0-33.174-11.757-33.174-43.318c0-29.15,9.501-40.422,33.496-40.422C134.595,96.733,149.089,99.148,149.089,99.148z"/>
	<path d="M167.283,98.343h11.918v10.951c0,0,14.01-9.662,29.469-12.722v12.238c-15.137,3.06-29.308,10.951-29.308,10.951v59.104
		h-12.079V98.343z"/>
	<path d="M280.815,168.395l0.321,9.502c0,0-18.358,2.577-31.401,2.577c-23.996,0-31.886-14.011-31.886-41.389
		c0-30.596,13.205-42.352,33.657-42.352c21.418,0,32.368,11.271,32.368,37.682l-0.644,9.18h-53.143
		c0,17.23,5.314,26.249,21.097,26.249C263.261,169.844,280.815,168.395,280.815,168.395z M271.797,133.934
		c0-19.97-6.12-27.055-20.292-27.055c-13.688,0-21.418,7.569-21.578,27.055H271.797z"/>
	<path d="M362.137,168.395l0.321,9.502c0,0-18.359,2.577-31.402,2.577c-23.995,0-31.885-14.011-31.885-41.389
		c0-30.596,13.205-42.352,33.656-42.352c21.417,0,32.369,11.271,32.369,37.682l-0.644,9.18h-53.143
		c0,17.23,5.314,26.249,21.096,26.249C344.583,169.844,362.137,168.395,362.137,168.395z M353.118,133.934
		c0-19.97-6.12-27.055-20.292-27.055c-13.688,0-21.417,7.569-21.578,27.055H353.118z"/>
	<path d="M384.033,178.864V98.343h11.917v5.637c0,0,13.044-7.246,24.96-7.246c22.224,0,27.215,10.95,27.215,39.615v42.516h-11.917
		v-42.196c0-21.255-2.415-29.146-17.393-29.146c-11.594,0-22.705,5.959-22.705,5.959v65.383H384.033z"/>
	<path d="M485.967,178.864h-12.078V108.81h-10.146V98.343h10.146v-7.247c0-23.189,5.959-29.47,21.74-29.47
		c5.475,0,16.265,1.128,16.265,1.128l-0.161,9.983c0,0-9.019-0.322-13.85-0.322c-9.018,0-11.917,3.865-11.917,18.841v7.085h23.352
		v10.467h-23.352V178.864z"/>
	<path d="M580.655,163.885c0.322,4.671,4.188,6.442,9.34,7.088l-0.481,9.501c-8.536,0-14.334-1.609-19.164-6.441
		c0,0-14.492,6.441-28.987,6.441c-14.655,0-22.705-8.375-22.705-24.64c0-15.461,8.05-22.223,24.638-23.834l25.283-2.415v-6.925
		c0-11.272-4.832-15.299-14.493-15.299c-11.274,0-30.438,2.094-30.438,2.094l-0.482-9.179c0,0,17.714-3.542,31.564-3.542
		c18.197,0,25.927,8.373,25.927,25.926V163.885z M544.745,141.017c-9.823,0.968-13.689,5.638-13.689,14.495
		c0,9.341,4.025,14.815,12.239,14.815c11.917,0,25.283-4.993,25.283-4.993v-26.571L544.745,141.017z"/>
	<path d="M657.955,110.098c0,0-17.877-2.576-28.184-2.576c-9.986,0-17.556,2.737-17.556,12.239c0,7.569,3.867,9.661,20.936,12.561
		c20.132,3.384,27.703,7.409,27.703,23.029c0,18.841-11.919,25.123-31.244,25.123c-10.307,0-28.343-3.059-28.343-3.059l0.643-10.47
		c0,0,18.358,2.737,26.574,2.737c13.205,0,20.29-2.899,20.29-13.849c0-8.375-4.188-10.468-21.74-13.205
		c-18.2-2.898-26.896-6.28-26.896-22.384c0-17.714,14.334-23.511,28.987-23.511c12.079,0,29.149,3.059,29.149,3.059L657.955,110.098
		z"/>
	<path d="M695.476,108.81v38.49c0,17.553,1.128,22.544,11.597,22.544c4.51,0,14.332-0.966,14.332-0.966l0.807,9.986
		c0,0-10.79,1.771-16.429,1.771c-16.587,0-22.223-6.282-22.223-29.472V108.81h-11.436V98.343h11.436V73.704h11.916v24.639h25.606
		v10.467H695.476z"/>
</g>
<path fill="#F0D600" d="M985.689,40.53c11.408,15.963,18.146,35.478,18.146,56.55c0,14.864-3.357,28.958-9.329,41.575
	c13.724-10.748,22.57-27.458,22.57-46.203C1017.077,69.943,1004.333,50.367,985.689,40.53z"/>
<path fill="#CF2B26" d="M873.399,243.637c-62.659,0-113.636-50.978-113.636-113.637c0-62.658,50.977-113.633,113.636-113.633
	c62.657,0,113.635,50.975,113.635,113.633C987.034,192.659,936.057,243.637,873.399,243.637z M873.399,38.546
	c-50.429,0-91.454,41.029-91.454,91.454c0,50.433,41.025,91.456,91.454,91.456c50.427,0,91.454-41.023,91.454-91.456
	C964.854,79.575,923.826,38.546,873.399,38.546z"/>
<g>
	<path fill="#D26829" d="M993.316,124.078c2.656-8.534,4.086-17.603,4.086-26.999c0-50.223-40.858-91.082-91.082-91.082
		c-9.395,0-18.463,1.431-26.998,4.086C940.822,13.087,990.313,62.577,993.316,124.078z"/>
	<path fill="#D26829" d="M906.32,165.978c-37.989,0-68.898-30.909-68.898-68.898c0-20.223,8.758-38.436,22.681-51.052
		c-14.07,2.22-27.004,7.902-37.897,16.148c-4.481,10.757-6.967,22.543-6.967,34.904c0,50.22,40.861,91.078,91.082,91.078
		c12.363,0,24.152-2.484,34.909-6.967c8.243-10.895,13.926-23.825,16.144-37.896C944.758,157.219,926.543,165.978,906.32,165.978z"
		/>
</g>
<g>
	<path fill="#F0D600" d="M958.393,128.949c-20.121-0.005-36.49-16.377-36.49-36.498c0-9.439,3.62-18.031,9.525-24.506
		c-5.427-5.079-11.511-9.458-18.119-12.987c-8.479,10.172-13.59,23.244-13.59,37.494c0,26.489,17.65,48.926,41.804,56.192
		c6.662-4.561,12.391-10.383,16.858-17.11c0.011-0.511,0.04-1.018,0.04-1.533C958.421,129.648,958.396,129.301,958.393,128.949z"/>
</g>
<g>
	<path d="M6.419,207.812v-2.601H25.27v2.601h-7.955v23.489h-2.866v-23.489H6.419z"/>
	<path d="M33.11,231.301h-2.828v-27.07h2.828v9.276c2.011-0.954,3.946-1.433,5.806-1.433c2.513,0,4.205,0.68,5.072,2.036
		c0.867,1.356,1.301,3.769,1.301,7.238v9.952h-2.828v-9.878c0-2.613-0.259-4.403-0.774-5.371c-0.515-0.967-1.602-1.451-3.261-1.451
		c-1.583,0-3.117,0.288-4.599,0.866l-0.716,0.264V231.301z"/>
	<path d="M65.155,228.963l1.094-0.112l0.075,2.224c-2.866,0.402-5.316,0.604-7.352,0.604c-2.714,0-4.638-0.785-5.769-2.356
		c-1.131-1.57-1.696-4.015-1.696-7.332c0-6.61,2.626-9.915,7.879-9.915c2.539,0,4.437,0.71,5.694,2.131
		c1.255,1.419,1.885,3.65,1.885,6.69l-0.151,2.149H54.373c0,2.086,0.377,3.631,1.131,4.637c0.754,1.005,2.067,1.508,3.939,1.508
		S63.219,229.114,65.155,228.963z M64.136,220.782c0-2.312-0.37-3.945-1.112-4.9c-0.741-0.954-1.948-1.433-3.619-1.433
		c-1.671,0-2.928,0.503-3.77,1.508c-0.841,1.006-1.275,2.614-1.301,4.825H64.136z"/>
	<path d="M93.089,231.301h-9.312v-26.09h9.312c4.248,0,7.062,1.687,8.446,5.055c0.804,1.935,1.206,4.473,1.206,7.613
		c0,6.561-1.635,10.694-4.9,12.403C96.532,230.962,94.949,231.301,93.089,231.301z M99.763,217.879c0-5-1.12-8.116-3.355-9.348
		c-0.905-0.504-2.012-0.757-3.318-0.757H86.68v20.963h6.409C97.538,228.737,99.763,225.117,99.763,217.879z"/>
	<path d="M109.413,208.191v-3.282h2.828v3.282H109.413z M109.413,231.301v-18.85h2.828v18.85H109.413z"/>
	<path d="M126.754,240.159c-3.016,0-5.121-0.407-6.314-1.225s-1.791-2.306-1.791-4.468c0-1.03,0.226-1.865,0.678-2.507
		c0.453-0.641,1.219-1.363,2.3-2.167c-0.704-0.479-1.056-1.345-1.056-2.602c0-0.428,0.314-1.22,0.943-2.375l0.339-0.604
		c-1.986-0.904-2.979-2.802-2.979-5.692c0-4.297,2.351-6.446,7.05-6.446c1.207,0,2.325,0.126,3.355,0.377l0.565,0.113l5.581-0.15
		v2.412l-3.581-0.075c0.829,0.829,1.244,2.086,1.244,3.77c0,2.363-0.584,4.016-1.755,4.958c-1.168,0.942-3.009,1.414-5.522,1.414
		c-0.679,0-1.294-0.051-1.847-0.152c-0.452,1.106-0.679,1.823-0.679,2.15c0,0.778,0.239,1.262,0.716,1.451
		c0.478,0.188,1.922,0.282,4.335,0.282s4.148,0.377,5.204,1.13c1.056,0.755,1.583,2.225,1.583,4.412
		C135.125,238.161,132.334,240.159,126.754,240.159z M121.438,234.24c0,1.333,0.371,2.257,1.112,2.772
		c0.742,0.515,2.111,0.771,4.11,0.771c1.998,0,3.431-0.275,4.297-0.829c0.868-0.553,1.301-1.477,1.301-2.771
		s-0.315-2.13-0.943-2.507s-1.86-0.565-3.694-0.565l-4.072-0.189c-0.829,0.604-1.388,1.132-1.677,1.584
		C121.583,232.96,121.438,233.537,121.438,234.24z M121.702,218.521c0,1.483,0.333,2.539,1,3.167
		c0.666,0.629,1.765,0.941,3.299,0.941c1.533,0,2.626-0.312,3.279-0.941c0.653-0.628,0.98-1.69,0.98-3.186s-0.327-2.558-0.98-3.186
		s-1.747-0.942-3.279-0.942c-1.534,0-2.633,0.32-3.299,0.961C122.035,215.977,121.702,217.038,121.702,218.521z"/>
	<path d="M140.666,208.191v-3.282h2.827v3.282H140.666z M140.666,231.301v-18.85h2.827v18.85H140.666z"/>
	<path d="M160.495,214.902h-5.994v9.009c0,2.162,0.157,3.581,0.472,4.26c0.314,0.68,1.062,1.019,2.243,1.019l3.355-0.227
		l0.188,2.338c-1.683,0.276-2.965,0.414-3.845,0.414c-1.961,0-3.317-0.478-4.072-1.433c-0.753-0.954-1.131-2.776-1.131-5.466v-9.914
		h-2.677v-2.451h2.677v-5.77h2.79v5.77h5.994V214.902z"/>
	<path d="M179.082,218.144v9.651c0.075,0.93,0.803,1.482,2.187,1.658l-0.114,2.225c-1.986,0-3.481-0.503-4.487-1.508
		c-2.262,1.005-4.524,1.508-6.786,1.508c-1.734,0-3.054-0.49-3.958-1.471c-0.905-0.98-1.357-2.388-1.357-4.222
		c0-1.835,0.465-3.186,1.395-4.053c0.93-0.866,2.388-1.401,4.374-1.603l5.918-0.564v-1.622c0-1.281-0.276-2.199-0.829-2.751
		c-0.553-0.554-1.307-0.83-2.262-0.83c-2.01,0-4.096,0.126-6.257,0.377l-1.169,0.113l-0.113-2.148
		c2.765-0.554,5.215-0.83,7.352-0.83c2.136,0,3.688,0.49,4.655,1.471C178.597,214.524,179.082,216.058,179.082,218.144z
		 M167.469,225.835c0,2.312,0.955,3.468,2.866,3.468c1.708,0,3.393-0.289,5.051-0.868l0.867-0.301v-6.22l-5.579,0.527
		c-1.131,0.1-1.948,0.428-2.45,0.979C167.721,223.975,167.469,224.779,167.469,225.835z"/>
	<path d="M186.696,231.301v-27.07h2.828v27.07H186.696z"/>
	<path d="M223.34,230.886c-2.59,0.528-4.915,0.792-6.975,0.792c-2.061,0-3.726-0.283-4.995-0.848
		c-1.269-0.566-2.249-1.446-2.94-2.639c-0.692-1.194-1.169-2.564-1.433-4.11c-0.264-1.545-0.396-3.475-0.396-5.786
		c0-2.312,0.132-4.254,0.396-5.825c0.264-1.57,0.741-2.959,1.433-4.165c0.691-1.209,1.665-2.086,2.921-2.642
		c1.257-0.551,2.89-0.829,4.9-0.829s4.374,0.278,7.088,0.829l-0.113,2.451c-2.54-0.453-4.802-0.679-6.787-0.679
		c-2.765,0-4.593,0.825-5.485,2.471c-0.892,1.646-1.338,4.455-1.338,8.426c0,1.986,0.081,3.582,0.244,4.788
		c0.164,1.206,0.484,2.293,0.962,3.261c0.477,0.968,1.175,1.658,2.092,2.074c0.917,0.414,2.262,0.621,4.034,0.621
		s3.865-0.226,6.278-0.679L223.34,230.886z"/>
	<path d="M229.409,208.191v-3.282h2.828v3.282H229.409z M229.409,231.301v-18.85h2.828v18.85H229.409z"/>
	<path d="M242.301,231.301h-2.828v-18.85h2.79v1.319c2.036-1.13,3.984-1.696,5.844-1.696c2.513,0,4.204,0.68,5.071,2.036
		c0.867,1.356,1.301,3.769,1.301,7.238v9.952h-2.79v-9.878c0-2.613-0.259-4.403-0.774-5.371c-0.515-0.967-1.615-1.451-3.298-1.451
		c-0.805,0-1.653,0.119-2.545,0.357c-0.892,0.238-1.577,0.472-2.054,0.698l-0.716,0.339V231.301z"/>
	<path d="M274.346,228.963l1.094-0.112l0.075,2.224c-2.866,0.402-5.316,0.604-7.352,0.604c-2.715,0-4.638-0.785-5.769-2.356
		c-1.131-1.57-1.696-4.015-1.696-7.332c0-6.61,2.627-9.915,7.879-9.915c2.539,0,4.437,0.71,5.694,2.131
		c1.255,1.419,1.884,3.65,1.884,6.69l-0.15,2.149h-12.441c0,2.086,0.377,3.631,1.131,4.637c0.754,1.005,2.067,1.508,3.939,1.508
		C270.507,229.189,272.411,229.114,274.346,228.963z M273.327,220.782c0-2.312-0.37-3.945-1.112-4.9
		c-0.741-0.954-1.948-1.433-3.619-1.433s-2.928,0.503-3.77,1.508c-0.841,1.006-1.275,2.614-1.301,4.825H273.327z"/>
	<path d="M285.202,231.301h-2.827v-18.85h2.79v1.319c1.885-1.13,3.719-1.696,5.504-1.696c2.337,0,3.971,0.641,4.902,1.923
		c0.83-0.503,1.904-0.949,3.223-1.338c1.319-0.39,2.481-0.585,3.487-0.585c2.512,0,4.204,0.673,5.07,2.018
		c0.867,1.345,1.301,3.764,1.301,7.257v9.952h-2.827v-9.878c0-2.613-0.251-4.403-0.754-5.371c-0.504-0.967-1.571-1.451-3.205-1.451
		c-0.829,0-1.684,0.119-2.563,0.357c-0.881,0.238-1.56,0.472-2.036,0.698l-0.716,0.339c0.326,0.829,0.49,2.664,0.49,5.504v9.802
		h-2.828v-9.727c0-2.714-0.245-4.555-0.735-5.522c-0.49-0.967-1.564-1.451-3.223-1.451c-0.805,0-1.627,0.119-2.47,0.357
		c-0.842,0.238-1.489,0.472-1.941,0.698l-0.641,0.339V231.301z"/>
	<path d="M329.011,218.144v9.651c0.075,0.93,0.804,1.482,2.187,1.658l-0.113,2.225c-1.987,0-3.483-0.503-4.488-1.508
		c-2.262,1.005-4.524,1.508-6.786,1.508c-1.734,0-3.054-0.49-3.958-1.471c-0.905-0.98-1.357-2.388-1.357-4.222
		c0-1.835,0.465-3.186,1.395-4.053c0.93-0.866,2.388-1.401,4.374-1.603l5.918-0.564v-1.622c0-1.281-0.276-2.199-0.829-2.751
		c-0.553-0.554-1.307-0.83-2.262-0.83c-2.01,0-4.096,0.126-6.257,0.377l-1.169,0.113l-0.113-2.148
		c2.765-0.554,5.215-0.83,7.352-0.83c2.136,0,3.688,0.49,4.655,1.471C328.525,214.524,329.011,216.058,329.011,218.144z
		 M317.398,225.835c0,2.312,0.955,3.468,2.866,3.468c1.708,0,3.393-0.289,5.051-0.868l0.867-0.301v-6.22l-5.579,0.527
		c-1.131,0.1-1.948,0.428-2.45,0.979C317.649,223.975,317.398,224.779,317.398,225.835z"/>
	<path d="M362.752,230.886c-2.59,0.528-4.916,0.792-6.976,0.792s-3.726-0.283-4.995-0.848c-1.269-0.566-2.25-1.446-2.94-2.639
		c-0.692-1.194-1.169-2.564-1.433-4.11c-0.264-1.545-0.396-3.475-0.396-5.786c0-2.312,0.132-4.254,0.396-5.825
		c0.264-1.57,0.741-2.959,1.433-4.165c0.69-1.209,1.665-2.086,2.921-2.642c1.257-0.551,2.89-0.829,4.9-0.829
		c2.011,0,4.375,0.278,7.089,0.829l-0.113,2.451c-2.541-0.453-4.802-0.679-6.787-0.679c-2.766,0-4.594,0.825-5.486,2.471
		c-0.892,1.646-1.338,4.455-1.338,8.426c0,1.986,0.081,3.582,0.245,4.788c0.163,1.206,0.484,2.293,0.961,3.261
		s1.175,1.658,2.092,2.074c0.917,0.414,2.262,0.621,4.033,0.621c1.772,0,3.865-0.226,6.279-0.679L362.752,230.886z"/>
	<path d="M369.047,231.301v-27.07h2.827v27.07H369.047z"/>
	<path d="M378.508,221.838c0-3.442,0.616-5.931,1.847-7.464c1.231-1.532,3.312-2.3,6.24-2.3c2.928,0,5,0.768,6.221,2.3
		c1.218,1.533,1.829,4.021,1.829,7.464c0,3.443-0.58,5.944-1.735,7.502c-1.157,1.558-3.268,2.338-6.333,2.338
		c-3.066,0-5.178-0.78-6.333-2.338C379.087,227.782,378.508,225.281,378.508,221.838z M381.411,221.781c0,2.753,0.333,4.682,1,5.787
		c0.667,1.106,2.061,1.658,4.185,1.658c2.123,0,3.512-0.547,4.165-1.64c0.655-1.093,0.982-3.022,0.982-5.786
		c0-2.765-0.367-4.669-1.096-5.711c-0.728-1.044-2.079-1.565-4.051-1.565c-1.974,0-3.331,0.521-4.072,1.565
		C381.783,217.132,381.411,219.029,381.411,221.781z"/>
	<path d="M412.815,212.451h2.83v18.85h-2.83v-1.32c-1.884,1.132-3.744,1.697-5.579,1.697c-2.563,0-4.267-0.667-5.109-1.998
		c-0.841-1.333-1.262-3.796-1.262-7.389v-9.84h2.827v9.803c0,2.738,0.238,4.573,0.717,5.503c0.478,0.93,1.558,1.396,3.241,1.396
		c0.829,0,1.671-0.12,2.526-0.359c0.855-0.238,1.509-0.47,1.96-0.696l0.678-0.34V212.451z"/>
	<path d="M437.358,204.23v27.07h-2.791v-1.282c-1.936,1.105-3.845,1.659-5.729,1.659c-1.005,0-1.885-0.125-2.639-0.377
		c-0.754-0.251-1.458-0.704-2.111-1.357c-1.357-1.356-2.037-3.863-2.037-7.521s0.61-6.296,1.829-7.917
		c1.219-1.62,3.236-2.432,6.051-2.432c1.458,0,3.004,0.163,4.637,0.49v-8.334H437.358z M427.556,228.888
		c0.453,0.177,1.037,0.265,1.752,0.265c0.717,0,1.521-0.12,2.414-0.359c0.892-0.238,1.59-0.47,2.093-0.696l0.753-0.34v-12.78
		c-1.607-0.301-3.103-0.452-4.486-0.452c-1.91,0-3.241,0.609-3.996,1.829c-0.754,1.218-1.13,3.109-1.13,5.674
		c0,2.914,0.44,4.875,1.32,5.88C426.676,228.386,427.104,228.712,427.556,228.888z"/>
</g>
<g>
	<path d="M452.961,234.422v-11.241h1.153v0.562c0.789-0.478,1.566-0.717,2.335-0.717c0.985,0,1.702,0.314,2.148,0.943
		c0.445,0.625,0.669,1.662,0.669,3.105c0,1.44-0.263,2.478-0.786,3.106c-0.524,0.628-1.393,0.939-2.607,0.939
		c-0.635,0-1.216-0.056-1.745-0.169v3.471H452.961z M456.277,224.068c-0.311,0-0.646,0.053-1.003,0.155
		c-0.359,0.105-0.641,0.208-0.849,0.312l-0.296,0.156v5.245c0.737,0.116,1.297,0.172,1.682,0.172c0.841,0,1.429-0.238,1.767-0.715
		c0.337-0.479,0.506-1.256,0.506-2.337c0-1.078-0.155-1.847-0.46-2.303C457.317,224.297,456.869,224.068,456.277,224.068z"/>
	<path d="M467.409,225.532v3.986c0.031,0.383,0.332,0.611,0.902,0.685l-0.046,0.917c-0.82,0-1.438-0.206-1.853-0.622
		c-0.935,0.416-1.869,0.622-2.802,0.622c-0.717,0-1.261-0.201-1.635-0.607c-0.373-0.404-0.56-0.983-0.56-1.742
		c0-0.758,0.19-1.315,0.576-1.674c0.382-0.357,0.985-0.577,1.805-0.661l2.445-0.234v-0.669c0-0.529-0.114-0.909-0.344-1.137
		c-0.228-0.229-0.539-0.344-0.933-0.344c-0.832,0-1.691,0.053-2.585,0.157l-0.481,0.046l-0.047-0.887
		c1.141-0.229,2.154-0.343,3.035-0.343c0.882,0,1.523,0.201,1.923,0.607C467.209,224.037,467.409,224.67,467.409,225.532z
		 M462.614,228.708c0,0.954,0.395,1.433,1.182,1.433c0.706,0,1.402-0.12,2.087-0.358l0.358-0.124v-2.569l-2.304,0.217
		c-0.468,0.043-0.805,0.177-1.012,0.405C462.717,227.939,462.614,228.272,462.614,228.708z"/>
	<path d="M474.492,224.192h-2.475v3.722c0,0.893,0.064,1.479,0.195,1.759c0.129,0.281,0.438,0.421,0.926,0.421l1.386-0.094
		l0.078,0.966c-0.696,0.113-1.226,0.172-1.587,0.172c-0.811,0-1.372-0.197-1.682-0.593c-0.312-0.394-0.468-1.146-0.468-2.258v-4.095
		h-1.105v-1.012h1.105V220.8h1.153v2.381h2.475V224.192z"/>
	<path d="M481.964,230l0.452-0.046l0.031,0.917c-1.184,0.168-2.195,0.249-3.036,0.249c-1.12,0-1.916-0.322-2.382-0.972
		c-0.468-0.648-0.701-1.659-0.701-3.027c0-2.729,1.085-4.096,3.255-4.096c1.049,0,1.831,0.293,2.351,0.88
		c0.518,0.586,0.778,1.508,0.778,2.763l-0.063,0.888h-5.138c0,0.86,0.156,1.5,0.467,1.915c0.313,0.417,0.854,0.623,1.627,0.623
		S481.165,230.063,481.964,230z M481.545,226.622c0-0.955-0.153-1.63-0.46-2.022c-0.307-0.396-0.805-0.594-1.494-0.594
		c-0.69,0-1.21,0.207-1.558,0.624c-0.348,0.414-0.526,1.078-0.537,1.992H481.545z"/>
	<path d="M486.448,230.966h-1.168v-7.785h1.153v0.544c0.839-0.466,1.645-0.699,2.414-0.699c1.037,0,1.735,0.281,2.094,0.841
		c0.358,0.562,0.537,1.558,0.537,2.99v4.109h-1.153v-4.079c0-1.08-0.105-1.818-0.319-2.22c-0.213-0.399-0.667-0.599-1.362-0.599
		c-0.333,0-0.683,0.049-1.052,0.149c-0.368,0.098-0.652,0.192-0.848,0.287l-0.297,0.14V230.966z"/>
	<path d="M498.374,224.192h-2.475v3.722c0,0.893,0.064,1.479,0.195,1.759c0.129,0.281,0.438,0.421,0.926,0.421l1.386-0.094
		l0.077,0.966c-0.696,0.113-1.225,0.172-1.587,0.172c-0.81,0-1.371-0.197-1.682-0.593c-0.312-0.394-0.468-1.146-0.468-2.258v-4.095
		h-1.105v-1.012h1.105V220.8h1.152v2.381h2.475V224.192z"/>
	<path d="M504.726,234.422v-11.241h1.153v0.562c0.788-0.478,1.566-0.717,2.335-0.717c0.985,0,1.702,0.314,2.147,0.943
		c0.447,0.625,0.67,1.662,0.67,3.105c0,1.44-0.262,2.478-0.786,3.106c-0.525,0.628-1.394,0.939-2.607,0.939
		c-0.634,0-1.215-0.056-1.745-0.169v3.471H504.726z M508.042,224.068c-0.311,0-0.646,0.053-1.005,0.155
		c-0.357,0.105-0.64,0.208-0.848,0.312l-0.296,0.156v5.245c0.737,0.116,1.297,0.172,1.681,0.172c0.841,0,1.43-0.238,1.769-0.715
		c0.337-0.479,0.505-1.256,0.505-2.337c0-1.078-0.153-1.847-0.46-2.303C509.083,224.297,508.633,224.068,508.042,224.068z"/>
	<path d="M518.972,230l0.452-0.046l0.029,0.917c-1.182,0.168-2.195,0.249-3.035,0.249c-1.121,0-1.916-0.322-2.382-0.972
		c-0.468-0.648-0.701-1.659-0.701-3.027c0-2.729,1.085-4.096,3.255-4.096c1.049,0,1.833,0.293,2.353,0.88
		c0.517,0.586,0.775,1.508,0.775,2.763l-0.062,0.888h-5.137c0,0.86,0.155,1.5,0.467,1.915c0.312,0.417,0.853,0.623,1.627,0.623
		C517.386,230.094,518.171,230.063,518.972,230z M518.552,226.622c0-0.955-0.154-1.63-0.46-2.022
		c-0.307-0.396-0.805-0.594-1.495-0.594s-1.209,0.207-1.557,0.624c-0.348,0.414-0.526,1.078-0.538,1.992H518.552z"/>
	<path d="M523.455,230.966h-1.166v-7.785h1.151v0.544c0.84-0.466,1.644-0.699,2.412-0.699c1.04,0,1.736,0.281,2.096,0.841
		c0.356,0.562,0.535,1.558,0.535,2.99v4.109h-1.151v-4.079c0-1.08-0.105-1.818-0.318-2.22c-0.213-0.399-0.666-0.599-1.362-0.599
		c-0.335,0-0.683,0.049-1.05,0.149c-0.369,0.098-0.654,0.192-0.851,0.287l-0.296,0.14V230.966z"/>
	<path d="M537.372,219.788v11.178h-1.151v-0.53c-0.8,0.457-1.588,0.685-2.367,0.685c-0.415,0-0.778-0.052-1.089-0.154
		c-0.312-0.103-0.604-0.292-0.872-0.562c-0.561-0.56-0.841-1.597-0.841-3.106s0.251-2.599,0.753-3.27
		c0.505-0.667,1.337-1.003,2.502-1.003c0.601,0,1.239,0.067,1.914,0.201v-3.438H537.372z M533.325,229.969
		c0.185,0.073,0.428,0.108,0.723,0.108c0.296,0,0.629-0.048,0.997-0.146c0.366-0.098,0.655-0.195,0.865-0.288l0.311-0.142v-5.277
		c-0.664-0.123-1.282-0.187-1.852-0.187c-0.79,0-1.341,0.252-1.651,0.757c-0.312,0.502-0.469,1.283-0.469,2.342
		c0,1.203,0.183,2.014,0.545,2.43C532.962,229.761,533.138,229.896,533.325,229.969z"/>
	<path d="M540.377,221.422v-1.355h1.166v1.355H540.377z M540.377,230.966v-7.785h1.166v7.785H540.377z"/>
	<path d="M545.703,230.966h-1.169v-7.785h1.152v0.544c0.842-0.466,1.646-0.699,2.413-0.699c1.039,0,1.737,0.281,2.095,0.841
		c0.36,0.562,0.537,1.558,0.537,2.99v4.109h-1.152v-4.079c0-1.08-0.105-1.818-0.319-2.22c-0.214-0.399-0.666-0.599-1.361-0.599
		c-0.334,0-0.683,0.049-1.052,0.149c-0.368,0.098-0.65,0.192-0.848,0.287l-0.296,0.14V230.966z"/>
	<path d="M556.646,234.624c-1.246,0-2.115-0.169-2.607-0.506c-0.494-0.338-0.742-0.952-0.742-1.847c0-0.425,0.098-0.77,0.281-1.034
		c0.188-0.264,0.505-0.563,0.95-0.894c-0.29-0.197-0.435-0.555-0.435-1.074c0-0.176,0.13-0.506,0.39-0.982l0.139-0.249
		c-0.82-0.373-1.228-1.157-1.228-2.35c0-1.774,0.968-2.663,2.91-2.663c0.496,0,0.96,0.053,1.385,0.155l0.232,0.046l2.305-0.061
		v0.995l-1.479-0.029c0.344,0.341,0.516,0.86,0.516,1.557c0,0.976-0.243,1.657-0.726,2.048c-0.48,0.387-1.243,0.581-2.28,0.581
		c-0.278,0-0.534-0.02-0.762-0.06c-0.187,0.456-0.281,0.752-0.281,0.886c0,0.323,0.099,0.521,0.296,0.599
		c0.197,0.08,0.795,0.117,1.79,0.117c0.996,0,1.714,0.157,2.149,0.468c0.436,0.312,0.653,0.919,0.653,1.822
		C560.103,233.799,558.951,234.624,556.646,234.624z M554.451,232.18c0,0.55,0.153,0.934,0.459,1.144
		c0.307,0.214,0.871,0.321,1.696,0.321s1.418-0.116,1.776-0.344c0.355-0.228,0.536-0.609,0.536-1.144c0-0.536-0.13-0.88-0.39-1.037
		c-0.26-0.154-0.766-0.231-1.524-0.231l-1.682-0.079c-0.342,0.251-0.575,0.468-0.693,0.654
		C554.51,231.65,554.451,231.89,554.451,232.18z M554.561,225.688c0,0.611,0.136,1.049,0.413,1.306
		c0.273,0.26,0.728,0.391,1.36,0.391c0.634,0,1.085-0.131,1.355-0.391c0.27-0.257,0.404-0.697,0.404-1.315
		c0-0.617-0.135-1.056-0.404-1.314c-0.271-0.26-0.722-0.39-1.355-0.39c-0.633,0-1.087,0.132-1.36,0.398
		C554.696,224.637,554.561,225.076,554.561,225.688z"/>
	<path d="M571.032,226.527v-1.074h2.975v5.294c-1.309,0.249-2.477,0.373-3.504,0.373c-1.568,0-2.653-0.45-3.261-1.353
		c-0.608-0.905-0.913-2.298-0.913-4.181c0-1.885,0.305-3.28,0.913-4.189c0.607-0.908,1.685-1.36,3.229-1.36
		c0.967,0,1.968,0.103,3.005,0.311l0.531,0.094l-0.048,0.996c-1.289-0.217-2.403-0.326-3.348-0.326
		c-1.193,0-1.998,0.344-2.414,1.034c-0.414,0.689-0.619,1.838-0.619,3.441c0,1.602,0.205,2.751,0.619,3.441
		c0.416,0.688,1.215,1.035,2.4,1.035c0.724,0,1.466-0.074,2.224-0.219v-3.317H571.032z"/>
	<path d="M577.104,220.191h3.906c1.07,0,1.872,0.221,2.405,0.663c0.535,0.44,0.803,1.133,0.803,2.077
		c0,0.675-0.117,1.202-0.352,1.581c-0.232,0.38-0.579,0.677-1.034,0.895c1.144,0.396,1.712,1.239,1.712,2.538
		c0,1.079-0.283,1.852-0.854,2.318c-0.573,0.468-1.4,0.702-2.476,0.702h-4.111V220.191z M580.964,221.25h-2.661v3.721h2.771
		c0.667,0,1.15-0.157,1.458-0.475c0.306-0.316,0.456-0.794,0.456-1.433c0-0.637-0.163-1.1-0.49-1.385S581.66,221.25,580.964,221.25z
		 M581.09,226.015h-2.787v3.893h2.865c0.705,0,1.241-0.147,1.61-0.443c0.369-0.297,0.553-0.818,0.553-1.564
		c0-0.396-0.076-0.727-0.227-0.997s-0.35-0.463-0.599-0.576C582.049,226.118,581.576,226.015,581.09,226.015z"/>
	<path d="M596.347,220.69v10.275h-1.199v-8.938l-2.646,1.744l-0.547-0.902l3.27-2.18H596.347z"/>
	<path d="M607.184,220.69v1.089h-4.996l-0.281,3.348c0.798-0.425,1.602-0.637,2.412-0.637c2.181,0,3.27,1.012,3.27,3.034
		c0,1.162-0.302,2.05-0.902,2.662c-0.604,0.614-1.447,0.919-2.539,0.919c-0.87,0-1.837-0.114-2.894-0.344l-0.516-0.107l0.14-0.949
		c1.194,0.228,2.199,0.341,3.015,0.341c0.814,0,1.428-0.209,1.844-0.63c0.415-0.419,0.623-1.011,0.623-1.766
		c0-0.759-0.19-1.297-0.567-1.613c-0.379-0.315-0.917-0.473-1.612-0.473c-0.374,0-0.766,0.051-1.176,0.154
		c-0.411,0.103-0.724,0.208-0.942,0.312l-0.326,0.156l-0.825-0.156l0.281-5.34H607.184z"/>
	<path d="M613.564,220.519c0.851,0,1.543,0.161,2.071,0.482c1.121,0.666,1.681,2.327,1.681,4.981c0,1.879-0.311,3.205-0.934,3.979
		c-0.623,0.773-1.557,1.158-2.803,1.158c-1.244,0-2.183-0.381-2.809-1.144c-0.628-0.762-0.942-2.121-0.942-4.079
		c0-1.957,0.308-3.342,0.925-4.155C611.373,220.928,612.309,220.519,613.564,220.519z M613.58,221.594
		c-0.591,0-1.058,0.123-1.401,0.372c-0.737,0.509-1.104,1.854-1.104,4.034c0,1.535,0.201,2.596,0.606,3.183
		c0.405,0.588,1.037,0.881,1.898,0.881c0.863,0,1.495-0.296,1.9-0.889c0.405-0.591,0.606-1.688,0.606-3.292
		s-0.195-2.719-0.584-3.347C615.115,221.907,614.474,221.594,613.58,221.594z"/>
	<path d="M620.33,221.195c0.649-0.45,1.543-0.677,2.687-0.677c1.143,0,2.046,0.227,2.717,0.677c0.669,0.452,1.003,1.118,1.003,2.002
		c0,0.644-0.129,1.133-0.389,1.47s-0.7,0.647-1.323,0.927c0.623,0.281,1.09,0.611,1.4,0.988c0.312,0.379,0.467,0.91,0.467,1.596
		c0,1.963-1.284,2.942-3.852,2.942c-2.57,0-3.854-0.923-3.854-2.771c0-0.737,0.143-1.297,0.428-1.682
		c0.287-0.383,0.734-0.741,1.347-1.074c-0.561-0.279-0.968-0.599-1.222-0.957c-0.256-0.358-0.381-0.843-0.381-1.456
		C619.358,222.31,619.681,221.647,620.33,221.195z M620.462,228.148c0,1.254,0.858,1.883,2.578,1.883
		c1.718,0,2.576-0.659,2.576-1.978c0-0.551-0.152-0.957-0.459-1.222c-0.308-0.265-0.76-0.484-1.363-0.663h-1.634
		c-0.572,0.157-0.997,0.388-1.277,0.693C620.602,227.169,620.462,227.598,620.462,228.148z M625.461,223.339
		c0-1.154-0.806-1.73-2.415-1.73c-1.608,0-2.412,0.572-2.412,1.713c0,0.457,0.126,0.825,0.375,1.106
		c0.249,0.279,0.633,0.513,1.151,0.699h1.634c0.562-0.176,0.979-0.405,1.254-0.685C625.322,224.161,625.461,223.794,625.461,223.339
		z"/>
	<path d="M634.211,220.69v10.275h-1.199v-8.938l-2.646,1.744l-0.547-0.902l3.27-2.18H634.211z"/>
	<path d="M643.226,230.966v-2.009h-4.981v-0.934l2.927-7.333h1.308l-2.974,7.209h3.721v-3.208h1.198v3.208h1.309v1.058h-1.309v2.009
		H643.226z"/>
	<path d="M651.432,220.519c0.851,0,1.542,0.161,2.071,0.482c1.121,0.666,1.679,2.327,1.679,4.981c0,1.879-0.309,3.205-0.934,3.979
		c-0.621,0.773-1.556,1.158-2.802,1.158c-1.245,0-2.183-0.381-2.809-1.144c-0.629-0.762-0.943-2.121-0.943-4.079
		c0-1.957,0.308-3.342,0.927-4.155C649.239,220.928,650.175,220.519,651.432,220.519z M651.446,221.594
		c-0.591,0-1.059,0.123-1.4,0.372c-0.738,0.509-1.105,1.854-1.105,4.034c0,1.535,0.201,2.596,0.608,3.183
		c0.403,0.588,1.036,0.881,1.897,0.881c0.862,0,1.495-0.296,1.899-0.889c0.406-0.591,0.607-1.688,0.607-3.292
		s-0.194-2.719-0.585-3.347C652.981,221.907,652.341,221.594,651.446,221.594z"/>
	<path d="M657.596,230.966v-1.773h1.276v1.773H657.596z"/>
	<path d="M664.509,230.063c1.879,0,2.823-1.194,2.833-3.582c-1.038,0.396-1.931,0.593-2.679,0.593c-2.24,0-3.361-1.044-3.361-3.131
		c0-1.048,0.321-1.876,0.967-2.491c0.643-0.611,1.51-0.919,2.599-0.919c1.257,0,2.189,0.465,2.802,1.396
		c0.611,0.927,0.919,2.293,0.919,4.094c0,1.802-0.345,3.101-1.036,3.899c-0.689,0.8-1.705,1.198-3.043,1.198
		c-0.779,0-1.583-0.07-2.412-0.217l-0.405-0.062l0.109-0.965C662.734,230,663.637,230.063,664.509,230.063z M664.758,226.015
		c0.633,0,1.366-0.14,2.195-0.421l0.404-0.141c-0.029-2.574-0.861-3.859-2.49-3.859c-0.728,0-1.294,0.209-1.704,0.631
		c-0.411,0.419-0.616,0.994-0.616,1.719C662.547,225.325,663.284,226.015,664.758,226.015z"/>
</g>
</svg>
